solid OpenSCAD_Model
  facet normal 0 0 -1
    outer loop
      vertex 32.591 37.568 0
      vertex 32.591 60.736 0
      vertex 44.594 60.736 0
    endloop
  endfacet
  facet normal 0 0 -1
    outer loop
      vertex 17.577 27.008 0
      vertex 5.57399 60.736 0
      vertex 17.577 37.568 0
    endloop
  endfacet
  facet normal 0 0 -1
    outer loop
      vertex 5.57399 60.736 0
      vertex 17.577 27.008 0
      vertex 5.57399 0 0
    endloop
  endfacet
  facet normal 0 0 -1
    outer loop
      vertex 32.591 27.008 0
      vertex 44.594 0 0
      vertex 32.591 0 0
    endloop
  endfacet
  facet normal 0 0 -1
    outer loop
      vertex 32.591 27.008 0
      vertex 44.594 60.736 0
      vertex 44.594 0 0
    endloop
  endfacet
  facet normal 0 0 -1
    outer loop
      vertex 17.577 37.568 0
      vertex 32.591 37.568 0
      vertex 32.591 27.008 0
    endloop
  endfacet
  facet normal 0 0 -1
    outer loop
      vertex 32.591 37.568 0
      vertex 44.594 60.736 0
      vertex 32.591 27.008 0
    endloop
  endfacet
  facet normal 0 0 -1
    outer loop
      vertex 17.577 27.008 0
      vertex 17.577 37.568 0
      vertex 32.591 27.008 0
    endloop
  endfacet
  facet normal 0 0 -1
    outer loop
      vertex 17.577 37.568 0
      vertex 5.57399 60.736 0
      vertex 17.577 60.736 0
    endloop
  endfacet
  facet normal 0 0 -1
    outer loop
      vertex 17.577 0 0
      vertex 5.57399 0 0
      vertex 17.577 27.008 0
    endloop
  endfacet
  facet normal 0 0 1
    outer loop
      vertex 44.594 60.736 12
      vertex 32.591 60.736 12
      vertex 32.591 37.568 12
    endloop
  endfacet
  facet normal 0 0 1
    outer loop
      vertex 17.577 37.568 12
      vertex 5.57399 60.736 12
      vertex 17.577 27.008 12
    endloop
  endfacet
  facet normal 0 0 1
    outer loop
      vertex 5.57399 0 12
      vertex 17.577 27.008 12
      vertex 5.57399 60.736 12
    endloop
  endfacet
  facet normal 0 0 1
    outer loop
      vertex 32.591 0 12
      vertex 44.594 0 12
      vertex 32.591 27.008 12
    endloop
  endfacet
  facet normal 0 -0 1
    outer loop
      vertex 44.594 0 12
      vertex 44.594 60.736 12
      vertex 32.591 27.008 12
    endloop
  endfacet
  facet normal 0 -0 1
    outer loop
      vertex 32.591 27.008 12
      vertex 32.591 37.568 12
      vertex 17.577 37.568 12
    endloop
  endfacet
  facet normal 0 0 1
    outer loop
      vertex 32.591 27.008 12
      vertex 44.594 60.736 12
      vertex 32.591 37.568 12
    endloop
  endfacet
  facet normal 0 0 1
    outer loop
      vertex 32.591 27.008 12
      vertex 17.577 37.568 12
      vertex 17.577 27.008 12
    endloop
  endfacet
  facet normal 0 0 1
    outer loop
      vertex 17.577 60.736 12
      vertex 5.57399 60.736 12
      vertex 17.577 37.568 12
    endloop
  endfacet
  facet normal 0 0 1
    outer loop
      vertex 17.577 27.008 12
      vertex 5.57399 0 12
      vertex 17.577 0 12
    endloop
  endfacet
  facet normal 0 -1 0
    outer loop
      vertex 32.591 27.008 0
      vertex 17.577 27.008 12
      vertex 17.577 27.008 0
    endloop
  endfacet
  facet normal 0 -1 0
    outer loop
      vertex 32.591 27.008 0
      vertex 32.591 27.008 12
      vertex 17.577 27.008 12
    endloop
  endfacet
  facet normal -1 0 0
    outer loop
      vertex 32.591 0 0
      vertex 32.591 27.008 12
      vertex 32.591 27.008 0
    endloop
  endfacet
  facet normal -1 0 0
    outer loop
      vertex 32.591 0 0
      vertex 32.591 0 12
      vertex 32.591 27.008 12
    endloop
  endfacet
  facet normal 0 -1 0
    outer loop
      vertex 44.594 0 0
      vertex 32.591 0 12
      vertex 32.591 0 0
    endloop
  endfacet
  facet normal 0 -1 0
    outer loop
      vertex 44.594 0 0
      vertex 44.594 0 12
      vertex 32.591 0 12
    endloop
  endfacet
  facet normal 1 0 0
    outer loop
      vertex 44.594 60.736 0
      vertex 44.594 0 12
      vertex 44.594 0 0
    endloop
  endfacet
  facet normal 1 0 -0
    outer loop
      vertex 44.594 60.736 0
      vertex 44.594 60.736 12
      vertex 44.594 0 12
    endloop
  endfacet
  facet normal 0 1 0
    outer loop
      vertex 32.591 60.736 0
      vertex 44.594 60.736 12
      vertex 44.594 60.736 0
    endloop
  endfacet
  facet normal 0 1 0
    outer loop
      vertex 32.591 60.736 0
      vertex 32.591 60.736 12
      vertex 44.594 60.736 12
    endloop
  endfacet
  facet normal -1 0 0
    outer loop
      vertex 32.591 37.568 0
      vertex 32.591 60.736 12
      vertex 32.591 60.736 0
    endloop
  endfacet
  facet normal -1 0 0
    outer loop
      vertex 32.591 37.568 0
      vertex 32.591 37.568 12
      vertex 32.591 60.736 12
    endloop
  endfacet
  facet normal 0 1 0
    outer loop
      vertex 17.577 37.568 0
      vertex 32.591 37.568 12
      vertex 32.591 37.568 0
    endloop
  endfacet
  facet normal 0 1 0
    outer loop
      vertex 17.577 37.568 0
      vertex 17.577 37.568 12
      vertex 32.591 37.568 12
    endloop
  endfacet
  facet normal 1 0 0
    outer loop
      vertex 17.577 60.736 0
      vertex 17.577 37.568 12
      vertex 17.577 37.568 0
    endloop
  endfacet
  facet normal 1 0 -0
    outer loop
      vertex 17.577 60.736 0
      vertex 17.577 60.736 12
      vertex 17.577 37.568 12
    endloop
  endfacet
  facet normal 0 1 0
    outer loop
      vertex 5.57399 60.736 0
      vertex 17.577 60.736 12
      vertex 17.577 60.736 0
    endloop
  endfacet
  facet normal 0 1 0
    outer loop
      vertex 5.57399 60.736 0
      vertex 5.57399 60.736 12
      vertex 17.577 60.736 12
    endloop
  endfacet
  facet normal -1 0 0
    outer loop
      vertex 5.57399 0 0
      vertex 5.57399 60.736 12
      vertex 5.57399 60.736 0
    endloop
  endfacet
  facet normal -1 0 0
    outer loop
      vertex 5.57399 0 0
      vertex 5.57399 0 12
      vertex 5.57399 60.736 12
    endloop
  endfacet
  facet normal 0 -1 0
    outer loop
      vertex 17.577 0 0
      vertex 5.57399 0 12
      vertex 5.57399 0 0
    endloop
  endfacet
  facet normal 0 -1 0
    outer loop
      vertex 17.577 0 0
      vertex 17.577 0 12
      vertex 5.57399 0 12
    endloop
  endfacet
  facet normal 1 0 0
    outer loop
      vertex 17.577 27.008 0
      vertex 17.577 0 12
      vertex 17.577 0 0
    endloop
  endfacet
  facet normal 1 0 -0
    outer loop
      vertex 17.577 27.008 0
      vertex 17.577 27.008 12
      vertex 17.577 0 12
    endloop
  endfacet
endsolid OpenSCAD_Model
