solid OpenSCAD_Model
  facet normal 0 0 -1
    outer loop
      vertex 43.454 50.112 0
      vertex 43.454 81.024 0
      vertex 59.458 81.024 0
    endloop
  endfacet
  facet normal 0 0 -1
    outer loop
      vertex 23.436 36.032 0
      vertex 7.43199 81.024 0
      vertex 23.436 50.112 0
    endloop
  endfacet
  facet normal 0 0 -1
    outer loop
      vertex 7.43199 81.024 0
      vertex 23.436 36.032 0
      vertex 7.43199 0 0
    endloop
  endfacet
  facet normal 0 0 -1
    outer loop
      vertex 43.454 36.032 0
      vertex 59.458 0 0
      vertex 43.454 0 0
    endloop
  endfacet
  facet normal 0 0 -1
    outer loop
      vertex 43.454 36.032 0
      vertex 59.458 81.024 0
      vertex 59.458 0 0
    endloop
  endfacet
  facet normal 0 0 -1
    outer loop
      vertex 23.436 50.112 0
      vertex 43.454 50.112 0
      vertex 43.454 36.032 0
    endloop
  endfacet
  facet normal 0 0 -1
    outer loop
      vertex 43.454 50.112 0
      vertex 59.458 81.024 0
      vertex 43.454 36.032 0
    endloop
  endfacet
  facet normal 0 0 -1
    outer loop
      vertex 23.436 36.032 0
      vertex 23.436 50.112 0
      vertex 43.454 36.032 0
    endloop
  endfacet
  facet normal 0 0 -1
    outer loop
      vertex 23.436 50.112 0
      vertex 7.43199 81.024 0
      vertex 23.436 81.024 0
    endloop
  endfacet
  facet normal 0 0 -1
    outer loop
      vertex 23.436 0 0
      vertex 7.43199 0 0
      vertex 23.436 36.032 0
    endloop
  endfacet
  facet normal 0 0 1
    outer loop
      vertex 59.458 81.024 15
      vertex 43.454 81.024 15
      vertex 43.454 50.112 15
    endloop
  endfacet
  facet normal 0 0 1
    outer loop
      vertex 23.436 50.112 15
      vertex 7.43199 81.024 15
      vertex 23.436 36.032 15
    endloop
  endfacet
  facet normal 0 0 1
    outer loop
      vertex 7.43199 0 15
      vertex 23.436 36.032 15
      vertex 7.43199 81.024 15
    endloop
  endfacet
  facet normal 0 0 1
    outer loop
      vertex 43.454 0 15
      vertex 59.458 0 15
      vertex 43.454 36.032 15
    endloop
  endfacet
  facet normal 0 -0 1
    outer loop
      vertex 59.458 0 15
      vertex 59.458 81.024 15
      vertex 43.454 36.032 15
    endloop
  endfacet
  facet normal 0 -0 1
    outer loop
      vertex 43.454 36.032 15
      vertex 43.454 50.112 15
      vertex 23.436 50.112 15
    endloop
  endfacet
  facet normal 0 0 1
    outer loop
      vertex 43.454 36.032 15
      vertex 59.458 81.024 15
      vertex 43.454 50.112 15
    endloop
  endfacet
  facet normal 0 0 1
    outer loop
      vertex 43.454 36.032 15
      vertex 23.436 50.112 15
      vertex 23.436 36.032 15
    endloop
  endfacet
  facet normal 0 0 1
    outer loop
      vertex 23.436 81.024 15
      vertex 7.43199 81.024 15
      vertex 23.436 50.112 15
    endloop
  endfacet
  facet normal 0 0 1
    outer loop
      vertex 23.436 36.032 15
      vertex 7.43199 0 15
      vertex 23.436 0 15
    endloop
  endfacet
  facet normal 0 -1 0
    outer loop
      vertex 43.454 36.032 0
      vertex 23.436 36.032 15
      vertex 23.436 36.032 0
    endloop
  endfacet
  facet normal 0 -1 0
    outer loop
      vertex 43.454 36.032 0
      vertex 43.454 36.032 15
      vertex 23.436 36.032 15
    endloop
  endfacet
  facet normal -1 0 0
    outer loop
      vertex 43.454 0 0
      vertex 43.454 36.032 15
      vertex 43.454 36.032 0
    endloop
  endfacet
  facet normal -1 0 0
    outer loop
      vertex 43.454 0 0
      vertex 43.454 0 15
      vertex 43.454 36.032 15
    endloop
  endfacet
  facet normal 0 -1 0
    outer loop
      vertex 59.458 0 0
      vertex 43.454 0 15
      vertex 43.454 0 0
    endloop
  endfacet
  facet normal 0 -1 0
    outer loop
      vertex 59.458 0 0
      vertex 59.458 0 15
      vertex 43.454 0 15
    endloop
  endfacet
  facet normal 1 0 0
    outer loop
      vertex 59.458 81.024 0
      vertex 59.458 0 15
      vertex 59.458 0 0
    endloop
  endfacet
  facet normal 1 0 -0
    outer loop
      vertex 59.458 81.024 0
      vertex 59.458 81.024 15
      vertex 59.458 0 15
    endloop
  endfacet
  facet normal 0 1 0
    outer loop
      vertex 43.454 81.024 0
      vertex 59.458 81.024 15
      vertex 59.458 81.024 0
    endloop
  endfacet
  facet normal 0 1 0
    outer loop
      vertex 43.454 81.024 0
      vertex 43.454 81.024 15
      vertex 59.458 81.024 15
    endloop
  endfacet
  facet normal -1 0 0
    outer loop
      vertex 43.454 50.112 0
      vertex 43.454 81.024 15
      vertex 43.454 81.024 0
    endloop
  endfacet
  facet normal -1 0 0
    outer loop
      vertex 43.454 50.112 0
      vertex 43.454 50.112 15
      vertex 43.454 81.024 15
    endloop
  endfacet
  facet normal 0 1 0
    outer loop
      vertex 23.436 50.112 0
      vertex 43.454 50.112 15
      vertex 43.454 50.112 0
    endloop
  endfacet
  facet normal 0 1 0
    outer loop
      vertex 23.436 50.112 0
      vertex 23.436 50.112 15
      vertex 43.454 50.112 15
    endloop
  endfacet
  facet normal 1 0 0
    outer loop
      vertex 23.436 81.024 0
      vertex 23.436 50.112 15
      vertex 23.436 50.112 0
    endloop
  endfacet
  facet normal 1 0 -0
    outer loop
      vertex 23.436 81.024 0
      vertex 23.436 81.024 15
      vertex 23.436 50.112 15
    endloop
  endfacet
  facet normal 0 1 0
    outer loop
      vertex 7.43199 81.024 0
      vertex 23.436 81.024 15
      vertex 23.436 81.024 0
    endloop
  endfacet
  facet normal 0 1 0
    outer loop
      vertex 7.43199 81.024 0
      vertex 7.43199 81.024 15
      vertex 23.436 81.024 15
    endloop
  endfacet
  facet normal -1 0 0
    outer loop
      vertex 7.43199 0 0
      vertex 7.43199 81.024 15
      vertex 7.43199 81.024 0
    endloop
  endfacet
  facet normal -1 0 0
    outer loop
      vertex 7.43199 0 0
      vertex 7.43199 0 15
      vertex 7.43199 81.024 15
    endloop
  endfacet
  facet normal 0 -1 0
    outer loop
      vertex 23.436 0 0
      vertex 7.43199 0 15
      vertex 7.43199 0 0
    endloop
  endfacet
  facet normal 0 -1 0
    outer loop
      vertex 23.436 0 0
      vertex 23.436 0 15
      vertex 7.43199 0 15
    endloop
  endfacet
  facet normal 1 0 0
    outer loop
      vertex 23.436 36.032 0
      vertex 23.436 0 15
      vertex 23.436 0 0
    endloop
  endfacet
  facet normal 1 0 -0
    outer loop
      vertex 23.436 36.032 0
      vertex 23.436 36.032 15
      vertex 23.436 0 15
    endloop
  endfacet
endsolid OpenSCAD_Model
