solid OpenSCAD_Model
  facet normal -1 0 0
    outer loop
      vertex 0 30 0
      vertex 0 18 23
      vertex 0 30 30
    endloop
  endfacet
  facet normal -1 0 0
    outer loop
      vertex 0 0 0
      vertex 0 18 23
      vertex 0 30 0
    endloop
  endfacet
  facet normal -1 -0 0
    outer loop
      vertex 0 18 23
      vertex 0 0 0
      vertex 0 0 23
    endloop
  endfacet
  facet normal -1 -0 0
    outer loop
      vertex 0 30 30
      vertex 0 18 23
      vertex 0 18 30
    endloop
  endfacet
  facet normal -0 0 1
    outer loop
      vertex 0 30 30
      vertex 60 18 30
      vertex 60 30 30
    endloop
  endfacet
  facet normal 0 0 1
    outer loop
      vertex 60 18 30
      vertex 0 30 30
      vertex 0 18 30
    endloop
  endfacet
  facet normal 1 0 0
    outer loop
      vertex 60 18 23
      vertex 60 30 30
      vertex 60 18 30
    endloop
  endfacet
  facet normal 1 0 0
    outer loop
      vertex 60 30 30
      vertex 60 18 23
      vertex 60 30 0
    endloop
  endfacet
  facet normal 1 0 0
    outer loop
      vertex 60 0 0
      vertex 60 18 23
      vertex 60 0 23
    endloop
  endfacet
  facet normal 1 0 0
    outer loop
      vertex 60 18 23
      vertex 60 0 0
      vertex 60 30 0
    endloop
  endfacet
  facet normal 0 1 0
    outer loop
      vertex 60 30 30
      vertex 58 30 21
      vertex 0 30 30
    endloop
  endfacet
  facet normal 0 1 -0
    outer loop
      vertex 60 30 0
      vertex 58 30 21
      vertex 60 30 30
    endloop
  endfacet
  facet normal 0 1 0
    outer loop
      vertex 58 30 2
      vertex 60 30 0
      vertex 2 30 2
    endloop
  endfacet
  facet normal 0 1 0
    outer loop
      vertex 58 30 21
      vertex 60 30 0
      vertex 58 30 2
    endloop
  endfacet
  facet normal 0 1 -0
    outer loop
      vertex 2 30 21
      vertex 0 30 30
      vertex 58 30 21
    endloop
  endfacet
  facet normal 0 1 0
    outer loop
      vertex 0 30 0
      vertex 2 30 21
      vertex 2 30 2
    endloop
  endfacet
  facet normal 0 1 0
    outer loop
      vertex 2 30 21
      vertex 0 30 0
      vertex 0 30 30
    endloop
  endfacet
  facet normal 0 1 0
    outer loop
      vertex 0 30 0
      vertex 2 30 2
      vertex 60 30 0
    endloop
  endfacet
  facet normal 0 0 -1
    outer loop
      vertex 0 0 0
      vertex 60 30 0
      vertex 60 0 0
    endloop
  endfacet
  facet normal -0 0 -1
    outer loop
      vertex 60 30 0
      vertex 0 0 0
      vertex 0 30 0
    endloop
  endfacet
  facet normal 0 -1 0
    outer loop
      vertex 0 0 0
      vertex 60 0 23
      vertex 0 0 23
    endloop
  endfacet
  facet normal 0 -1 -0
    outer loop
      vertex 60 0 23
      vertex 0 0 0
      vertex 60 0 0
    endloop
  endfacet
  facet normal -0 0 1
    outer loop
      vertex 0 18 23
      vertex 60 0 23
      vertex 60 18 23
    endloop
  endfacet
  facet normal 0 0 1
    outer loop
      vertex 60 0 23
      vertex 0 18 23
      vertex 0 0 23
    endloop
  endfacet
  facet normal 0 -1 0
    outer loop
      vertex 0 18 23
      vertex 60 18 30
      vertex 0 18 30
    endloop
  endfacet
  facet normal 0 -1 -0
    outer loop
      vertex 60 18 30
      vertex 0 18 23
      vertex 60 18 23
    endloop
  endfacet
  facet normal 1 -0 0
    outer loop
      vertex 2 2 21
      vertex 2 30 2
      vertex 2 30 21
    endloop
  endfacet
  facet normal 1 0 0
    outer loop
      vertex 2 30 2
      vertex 2 2 21
      vertex 2 2 2
    endloop
  endfacet
  facet normal 0 0 -1
    outer loop
      vertex 2 2 21
      vertex 58 30 21
      vertex 58 2 21
    endloop
  endfacet
  facet normal -0 0 -1
    outer loop
      vertex 58 30 21
      vertex 2 2 21
      vertex 2 30 21
    endloop
  endfacet
  facet normal -1 0 0
    outer loop
      vertex 58 2 2
      vertex 58 30 21
      vertex 58 30 2
    endloop
  endfacet
  facet normal -1 -0 0
    outer loop
      vertex 58 30 21
      vertex 58 2 2
      vertex 58 2 21
    endloop
  endfacet
  facet normal -0 0 1
    outer loop
      vertex 2 30 2
      vertex 58 2 2
      vertex 58 30 2
    endloop
  endfacet
  facet normal 0 0 1
    outer loop
      vertex 58 2 2
      vertex 2 30 2
      vertex 2 2 2
    endloop
  endfacet
  facet normal 0 1 -0
    outer loop
      vertex 58 2 2
      vertex 2 2 21
      vertex 58 2 21
    endloop
  endfacet
  facet normal 0 1 0
    outer loop
      vertex 2 2 21
      vertex 58 2 2
      vertex 2 2 2
    endloop
  endfacet
endsolid OpenSCAD_Model
